<svg width="388" height="372" viewBox="0 0 388 372" fill="none" xmlns="http://www.w3.org/2000/svg">
<path d="M385.475 105.272C385.475 104.041 387.5 102.809 387.5 101.578C387.5 101.578 387.5 101.578 387.5 100.347C387.5 100.347 387.5 100.347 387.5 99.1156C387.5 97.8844 387.5 96.6531 387.5 95.4219C387.5 95.4219 387.5 95.4219 387.5 94.1906C387.5 92.9594 385.475 91.7281 385.475 90.4969C383.45 89.2656 383.45 89.2656 381.425 88.0344L158.675 1.84688C152.6 -0.615625 142.475 -0.615625 136.4 1.84688L-126.85 112.659L-128.875 113.891C-128.875 113.891 -128.875 113.891 -130.9 113.891C-132.925 115.122 -132.925 116.353 -134.95 117.584C-134.95 117.584 -134.95 117.584 -134.95 118.816C-139 122.509 -139 123.741 -139 124.972V198.847V272.722C-139 276.416 -134.95 281.341 -128.875 282.572L93.875 368.759C97.925 369.991 101.975 371.222 104 371.222C108.05 371.222 112.1 369.991 116.15 368.759L379.4 257.947C383.45 255.484 387.5 253.022 387.5 249.328C387.5 245.634 385.475 241.941 381.425 239.478C363.2 228.397 359.15 212.391 371.3 197.616L385.475 179.147C385.475 177.916 387.5 176.684 387.5 175.453V174.222C387.5 172.991 387.5 170.528 385.475 169.297V168.066C385.475 166.834 383.45 165.603 381.425 164.372C363.2 153.291 359.15 137.284 371.3 122.509L385.475 105.272ZM338.9 171.759L104 270.259L-98.5 192.691V148.366L93.875 222.241C97.925 223.472 101.975 224.703 104 224.703C108.05 224.703 112.1 223.472 116.15 222.241L324.725 134.822C322.7 147.134 326.75 159.447 338.9 171.759ZM104 344.134L-98.5 266.566V222.241L93.875 296.116C97.925 297.347 101.975 298.578 104 298.578C108.05 298.578 112.1 297.347 116.15 296.116L324.725 208.697C322.7 222.241 326.75 235.784 338.9 246.866L104 344.134Z" fill="white" fill-opacity="0.1"/>
</svg>
