<svg width="349" height="266" viewBox="0 0 349 266" fill="none" xmlns="http://www.w3.org/2000/svg">
<path d="M389 312.426H338.035L308.931 270.85L279.025 312.426H229.087L282.833 242.903L229.938 173.57H280.892L309.521 214.31L338.307 173.57H388.399L335.377 241.961L389 312.426ZM244.548 54.0195H236.995C232.811 52.6649 228.544 51.5826 224.22 50.7795C219.072 49.7217 213.832 49.176 208.577 49.1504C198.962 48.6517 189.46 51.4066 181.605 56.9704C173.694 64.6138 168.997 74.984 168.47 85.9682L164.308 116.322H224.169V157.857H155.987L143.798 237.634C141.823 253.145 136.729 268.097 128.822 281.589C122.383 292.076 113.709 301.016 103.419 307.77C94.0581 313.642 83.7685 317.885 72.9881 320.318C61.6278 322.828 50.0227 324.062 38.3885 323.998C32.4484 323.998 25.6539 323.673 18.0049 323.022C11.9458 322.661 5.92521 321.818 0 320.502V261.696H3.88611C5.42844 263.968 7.46615 265.861 9.84595 267.232C12.2258 268.603 14.8857 269.417 17.6256 269.612C22.9618 270.699 28.3929 271.254 33.8388 271.268C44.3693 271.885 54.7499 268.545 62.9425 261.903C71.0969 253.183 75.9554 241.895 76.682 229.982L87.3704 157.86H40.7581V116.322H98.8556L104.652 78.6799C106.325 64.3188 111.244 50.5261 119.038 38.3454C125.474 28.7694 133.87 20.6679 143.672 14.5766C153.002 8.82149 163.35 4.90932 174.155 3.05238C184.682 1.09806 195.361 0.0766381 206.068 0C212.422 0 218.776 0.2687 225.129 0.806104C231.483 1.35474 237.956 2.17219 244.549 3.25844L244.548 54.0195Z" fill="white" fill-opacity="0.1"/>
</svg>
